# xmcd
#
# Track frame offsets:
#	150
#	20505
#	35490
#	56950
#	74115
#	87162
#	106050
#	122382
#	149540
#	164605
#
# Disc length: 2308 seconds
#
# Revision: 1
# Processed by: cddbd v1.5.1PL2 Copyright (c) Steve Scherf et al.
# Submitted via: audiograbber 1.83.01
#
DISCID=8f09020a
DTITLE=Camp Harlow - Saturday Matinee
DYEAR=1996
DGENRE=Blues
TTITLE0=I'm Brilliant Baby
TTITLE1=Nadine
TTITLE2=Alias Jesse James
TTITLE3=Somebody
TTITLE4=Be-Bop-A-Lu-La
TTITLE5=Lonesome Blues
TTITLE6=Goodbye From Mama
TTITLE7=Down In The Flood
TTITLE8=Cryin
TTITLE9=Oh, It's Fine.
EXTD=
EXTT0=
EXTT1=
EXTT2=
EXTT3=
EXTT4=
EXTT5=
EXTT6=
EXTT7=
EXTT8=
EXTT9=
PLAYORDER=
